<!-- Generated by IcoMoon.io -->
<svg version="1.1" xmlns="http://www.w3.org/2000/svg" width="48" height="32" viewBox="0 0 48 32">
<title>logo-dark</title>
<path d="M37.381 32c-0.524 0-0.952-0.429-0.952-0.952v-15.238c0-3.19 2.381-5.81 5.524-5.81s5.667 2.667 5.667 5.857-2.571 5.81-5.714 5.81c-0.81 0-1.619-0.143-2.333-0.476-0.476-0.19-0.714-0.762-0.476-1.238 0.19-0.476 0.762-0.667 1.238-0.476 0.476 0.238 1 0.333 1.524 0.333 2.095 0 3.81-1.762 3.81-3.905s-1.571-4-3.667-4c-2.095 0-3.667 1.762-3.667 3.905v15.238c0 0.524-0.429 0.952-0.952 0.952z"></path>
<path d="M40.905 17.095h-6.905c-0.524 0-0.905-0.429-0.905-0.905v0c0-0.524 0.429-0.905 0.905-0.905h6.905c0.524 0 0.905 0.429 0.905 0.905v0c0 0.476-0.381 0.905-0.905 0.905z"></path>
<path d="M34.381 16.19c0 0.524-0.429 0.905-0.905 0.905h-3.81c-0.524 0-0.905-0.429-0.905-0.905v-0.048c0-0.524 0.429-0.905 0.905-0.905h3.81c0.476 0 0.905 0.381 0.905 0.952v0z"></path>
<path d="M5.857 21.952c-3.143 0-5.619-2.619-5.619-5.81s2.571-5.81 5.714-5.81c0.81 0 1.619 0.143 2.333 0.476 0.476 0.19 0.714 0.762 0.476 1.238-0.19 0.476-0.762 0.667-1.238 0.476-0.476-0.238-1-0.333-1.524-0.333-2.095 0-3.81 1.762-3.81 3.905s1.571 3.905 3.667 3.905 3.667-1.762 3.667-3.905v-15.143c0-0.524 0.429-0.952 0.952-0.952s0.952 0.429 0.952 0.952v15.238c-0.048 3.19-2.429 5.762-5.571 5.762z"></path>
<path d="M19.143 21.952c-3.143 0-5.714-2.619-5.714-5.81s2.571-5.81 5.714-5.81c0.476 0 0.952 0.048 1.429 0.19 0.524 0.143 0.81 0.667 0.667 1.143-0.143 0.524-0.667 0.81-1.143 0.667-0.286-0.095-0.619-0.143-0.952-0.143-2.095 0-3.81 1.762-3.81 3.905s1.714 3.905 3.81 3.905 3.81-1.762 3.81-3.905c0-0.524 0.429-0.952 0.952-0.952s0.952 0.429 0.952 0.952c0 3.286-2.571 5.857-5.714 5.857z"></path>
<path d="M28.667 21.952c-0.476 0-0.952-0.048-1.429-0.19-0.524-0.143-0.81-0.667-0.667-1.143 0.143-0.524 0.667-0.81 1.143-0.667 0.286 0.095 0.619 0.143 0.952 0.143 2.095 0 3.81-1.762 3.81-3.905s-1.714-3.905-3.81-3.905-3.81 1.762-3.81 3.905c0 0.524-0.429 0.952-0.952 0.952s-0.952-0.429-0.952-0.952c0-3.19 2.571-5.81 5.714-5.81s5.714 2.619 5.714 5.81-2.571 5.762-5.714 5.762z"></path>
<path d="M19.095 16.19c0 0.524-0.429 0.905-0.905 0.905h-3.762c-0.524 0-0.905-0.429-0.905-0.905v-0.048c0-0.524 0.429-0.905 0.905-0.905h3.762c0.476 0 0.905 0.381 0.905 0.952v0z"></path>
</svg>
